<mxfile host="app.diagrams.net" modified="2021-08-29T10:25:59.911Z" agent="5.0 (Macintosh; Intel Mac OS X 10_15_7) AppleWebKit/537.36 (KHTML, like Gecko) Chrome/81.0.4044.138 Safari/537.36" etag="tif7epAKuYEaxF5ZeXwW" version="14.9.3" type="github">
  <diagram name="Page-1" id="52a04d89-c75d-2922-d76d-85b35f80e030">
    <mxGraphModel dx="946" dy="614" grid="1" gridSize="10" guides="1" tooltips="1" connect="1" arrows="1" fold="1" page="1" pageScale="1" pageWidth="1100" pageHeight="850" background="none" math="0" shadow="0">
      <root>
        <mxCell id="0" />
        <mxCell id="1" parent="0" />
        <mxCell id="_Gdm4zX7cV0moshB9dZv-1" value="PD" style="shape=umlActor;verticalLabelPosition=bottom;verticalAlign=top;html=1;" vertex="1" parent="1">
          <mxGeometry x="70" y="215" width="50" height="90" as="geometry" />
        </mxCell>
        <mxCell id="_Gdm4zX7cV0moshB9dZv-6" value="现有组件满足需求" style="rhombus;whiteSpace=wrap;html=1;fillColor=#ffffc0;strokeColor=#ff0000;" vertex="1" parent="1">
          <mxGeometry x="230" y="210" width="130" height="80" as="geometry" />
        </mxCell>
        <mxCell id="_Gdm4zX7cV0moshB9dZv-7" value="&lt;font style=&quot;font-size: 16px&quot;&gt;no&lt;/font&gt;" style="edgeStyle=orthogonalEdgeStyle;html=1;align=left;verticalAlign=bottom;endArrow=open;endSize=8;strokeColor=#ff0000;" edge="1" source="_Gdm4zX7cV0moshB9dZv-6" parent="1">
          <mxGeometry x="-1" relative="1" as="geometry">
            <mxPoint x="420" y="250" as="targetPoint" />
          </mxGeometry>
        </mxCell>
        <mxCell id="_Gdm4zX7cV0moshB9dZv-8" value="&lt;font style=&quot;font-size: 16px&quot;&gt;yes&lt;/font&gt;" style="edgeStyle=orthogonalEdgeStyle;html=1;align=left;verticalAlign=top;endArrow=open;endSize=8;strokeColor=#ff0000;" edge="1" source="_Gdm4zX7cV0moshB9dZv-6" parent="1">
          <mxGeometry x="-1" relative="1" as="geometry">
            <mxPoint x="295" y="350" as="targetPoint" />
          </mxGeometry>
        </mxCell>
        <mxCell id="_Gdm4zX7cV0moshB9dZv-11" value="&lt;font style=&quot;font-size: 16px&quot;&gt;提出需求&lt;/font&gt;" style="text;html=1;align=center;verticalAlign=middle;resizable=0;points=[];autosize=1;strokeColor=none;" vertex="1" parent="1">
          <mxGeometry x="150" y="210" width="80" height="20" as="geometry" />
        </mxCell>
        <mxCell id="_Gdm4zX7cV0moshB9dZv-12" value="&lt;font size=&quot;1&quot;&gt;&lt;b style=&quot;font-size: 17px&quot;&gt;发布端开发流程&lt;/b&gt;&lt;/font&gt;" style="text;html=1;align=center;verticalAlign=middle;resizable=0;points=[];autosize=1;strokeColor=none;" vertex="1" parent="1">
          <mxGeometry x="315" y="150" width="130" height="20" as="geometry" />
        </mxCell>
        <mxCell id="_Gdm4zX7cV0moshB9dZv-13" value="" style="endArrow=classic;html=1;" edge="1" parent="1">
          <mxGeometry width="50" height="50" relative="1" as="geometry">
            <mxPoint x="130" y="250" as="sourcePoint" />
            <mxPoint x="230" y="250" as="targetPoint" />
          </mxGeometry>
        </mxCell>
        <mxCell id="_Gdm4zX7cV0moshB9dZv-16" value="" style="edgeStyle=orthogonalEdgeStyle;rounded=0;orthogonalLoop=1;jettySize=auto;html=1;" edge="1" parent="1" source="_Gdm4zX7cV0moshB9dZv-14" target="_Gdm4zX7cV0moshB9dZv-15">
          <mxGeometry relative="1" as="geometry">
            <Array as="points">
              <mxPoint x="295" y="440" />
              <mxPoint x="295" y="440" />
            </Array>
          </mxGeometry>
        </mxCell>
        <mxCell id="_Gdm4zX7cV0moshB9dZv-14" value="新增组件或完善旧组件" style="rounded=1;whiteSpace=wrap;html=1;" vertex="1" parent="1">
          <mxGeometry x="230" y="350" width="130" height="40" as="geometry" />
        </mxCell>
        <mxCell id="_Gdm4zX7cV0moshB9dZv-20" value="" style="edgeStyle=orthogonalEdgeStyle;rounded=0;orthogonalLoop=1;jettySize=auto;html=1;" edge="1" parent="1" source="_Gdm4zX7cV0moshB9dZv-15" target="_Gdm4zX7cV0moshB9dZv-19">
          <mxGeometry relative="1" as="geometry" />
        </mxCell>
        <mxCell id="_Gdm4zX7cV0moshB9dZv-15" value="约定组件schema及相应的技术方案" style="rounded=1;whiteSpace=wrap;html=1;" vertex="1" parent="1">
          <mxGeometry x="230" y="420" width="130" height="40" as="geometry" />
        </mxCell>
        <mxCell id="_Gdm4zX7cV0moshB9dZv-22" value="" style="edgeStyle=orthogonalEdgeStyle;rounded=0;orthogonalLoop=1;jettySize=auto;html=1;" edge="1" parent="1" source="_Gdm4zX7cV0moshB9dZv-19" target="_Gdm4zX7cV0moshB9dZv-21">
          <mxGeometry relative="1" as="geometry" />
        </mxCell>
        <mxCell id="_Gdm4zX7cV0moshB9dZv-19" value="编写代码联调" style="rounded=1;whiteSpace=wrap;html=1;" vertex="1" parent="1">
          <mxGeometry x="230" y="490" width="130" height="40" as="geometry" />
        </mxCell>
        <mxCell id="_Gdm4zX7cV0moshB9dZv-24" value="" style="edgeStyle=orthogonalEdgeStyle;rounded=0;orthogonalLoop=1;jettySize=auto;html=1;" edge="1" parent="1" source="_Gdm4zX7cV0moshB9dZv-21" target="_Gdm4zX7cV0moshB9dZv-23">
          <mxGeometry relative="1" as="geometry" />
        </mxCell>
        <mxCell id="_Gdm4zX7cV0moshB9dZv-21" value="测试修复问题" style="rounded=1;whiteSpace=wrap;html=1;" vertex="1" parent="1">
          <mxGeometry x="230" y="560" width="130" height="40" as="geometry" />
        </mxCell>
        <mxCell id="_Gdm4zX7cV0moshB9dZv-23" value="CR上线总结文档" style="rounded=1;whiteSpace=wrap;html=1;" vertex="1" parent="1">
          <mxGeometry x="230" y="630" width="130" height="40" as="geometry" />
        </mxCell>
        <mxCell id="_Gdm4zX7cV0moshB9dZv-26" value="给出实现方案" style="rounded=1;whiteSpace=wrap;html=1;" vertex="1" parent="1">
          <mxGeometry x="420" y="230" width="130" height="40" as="geometry" />
        </mxCell>
        <mxCell id="_Gdm4zX7cV0moshB9dZv-28" value="" style="endArrow=none;html=1;" edge="1" parent="1">
          <mxGeometry width="50" height="50" relative="1" as="geometry">
            <mxPoint x="490" y="510" as="sourcePoint" />
            <mxPoint x="490" y="271" as="targetPoint" />
          </mxGeometry>
        </mxCell>
        <mxCell id="_Gdm4zX7cV0moshB9dZv-29" value="" style="endArrow=classic;html=1;entryX=1;entryY=0.5;entryDx=0;entryDy=0;" edge="1" parent="1" target="_Gdm4zX7cV0moshB9dZv-19">
          <mxGeometry width="50" height="50" relative="1" as="geometry">
            <mxPoint x="490" y="510" as="sourcePoint" />
            <mxPoint x="410" y="390" as="targetPoint" />
          </mxGeometry>
        </mxCell>
      </root>
    </mxGraphModel>
  </diagram>
</mxfile>
